<svg width="53" height="53" viewBox="0 0 53 53" fill="none" xmlns="http://www.w3.org/2000/svg">
<g clip-path="url(#clip0_2_514)">
<mask id="mask0_2_514" style="mask-type:luminance" maskUnits="userSpaceOnUse" x="0" y="0" width="53" height="21">
<path d="M53 0H0V20.1318H53V0Z" fill="white"/>
</mask>
<g mask="url(#mask0_2_514)">
<path d="M4.19206 18.2769C4.05812 18.57 3.88256 18.8193 3.66689 19.0241C3.45123 19.2289 3.21059 19.3838 2.94498 19.4888C2.67937 19.5938 2.40241 19.6437 2.1141 19.6376C1.82579 19.6323 1.54202 19.5658 1.26355 19.4389C0.981292 19.3097 0.743682 19.1382 0.550715 18.9244C0.358508 18.7105 0.215488 18.468 0.121654 18.1967C0.0285776 17.9263 -0.0115286 17.6422 0.00284907 17.3444C0.0172268 17.0475 0.0898719 16.7543 0.223055 16.4642C0.320672 16.2518 0.447045 16.0569 0.603686 15.8801C0.760328 15.7033 0.934372 15.5537 1.12582 15.4305C1.31727 15.3073 1.51705 15.2228 1.72515 15.1759L2.06038 16.1C1.82579 16.1566 1.62829 16.2496 1.4671 16.3773C1.30668 16.5057 1.18182 16.6667 1.09253 16.8608C1.02215 17.015 0.984318 17.1714 0.980531 17.3316C0.975992 17.4918 1.00096 17.6429 1.05469 17.7872C1.10842 17.9315 1.1909 18.0623 1.30138 18.1793C1.41187 18.2964 1.54808 18.3917 1.70925 18.4657C1.86741 18.5375 2.02632 18.576 2.18599 18.5805C2.34566 18.5851 2.49928 18.5601 2.64683 18.505C2.79364 18.4506 2.92682 18.3668 3.04411 18.2549C3.16216 18.1423 3.25826 18.0056 3.33166 17.8446C3.41718 17.658 3.45652 17.4661 3.4482 17.2696C3.44064 17.0732 3.38691 16.8752 3.28778 16.675L4.18373 16.3327C4.2806 16.5186 4.34568 16.7233 4.37821 16.947C4.41151 17.1706 4.41226 17.3966 4.38048 17.6255C4.3487 17.8544 4.28589 18.0713 4.19206 18.2769Z" fill="#000056"/>
<path d="M6.55381 14.3214C6.36614 14.5782 6.14669 14.7853 5.8947 14.9417C5.64347 15.0981 5.37635 15.2001 5.09333 15.2485C4.81032 15.2968 4.52882 15.29 4.24732 15.2273C3.96582 15.1646 3.70172 15.0429 3.45352 14.8623C3.20607 14.6817 3.00856 14.4679 2.86327 14.2193C2.71723 13.9708 2.62415 13.7048 2.58404 13.4215C2.54394 13.1381 2.55983 12.8525 2.63172 12.5661C2.70361 12.2798 2.83377 12.0077 3.02143 11.7501C3.20909 11.4932 3.42854 11.2862 3.68053 11.1297C3.93176 10.9733 4.19889 10.8714 4.4819 10.823C4.76492 10.7746 5.04641 10.7815 5.32792 10.8441C5.60942 10.9068 5.87427 11.0285 6.12172 11.2091C6.36992 11.3897 6.56667 11.6043 6.71196 11.8521C6.85801 12.1007 6.95107 12.3667 6.9912 12.65C7.03132 12.9333 7.01544 13.2189 6.94354 13.5053C6.87164 13.7917 6.74148 14.0637 6.55381 14.3214ZM5.7812 13.7584C5.88108 13.6217 5.94843 13.4766 5.98324 13.3224C6.01805 13.1683 6.02335 13.0164 5.99837 12.8661C5.9734 12.7158 5.9174 12.5714 5.83114 12.4339C5.74487 12.2963 5.63137 12.1762 5.49061 12.0742C5.34684 11.97 5.197 11.8982 5.04112 11.8589C4.88524 11.8196 4.73087 11.8113 4.58027 11.8339C4.42893 11.8558 4.28591 11.9073 4.1497 11.9881C4.01349 12.0682 3.89544 12.177 3.79556 12.3137C3.69567 12.4505 3.62832 12.5956 3.59351 12.7497C3.5587 12.9039 3.5534 13.0557 3.57838 13.2061C3.60335 13.3565 3.65859 13.5 3.74334 13.6367C3.8281 13.7736 3.94085 13.8929 4.08084 13.9949C4.22462 14.0992 4.3752 14.1717 4.53336 14.2118C4.69151 14.2518 4.84588 14.2609 4.99723 14.239C5.14857 14.2171 5.2916 14.1657 5.4278 14.0848C5.56326 14.004 5.6813 13.8952 5.7812 13.7584Z" fill="#000056"/>
<path d="M8.49804 11.7705L5.66333 8.62496L6.39205 7.96992L9.46737 8.50862L7.82376 6.68389L8.55247 6.0288L11.3872 9.17427L10.7031 9.78856L7.51808 9.21809L9.22675 11.1147L8.49804 11.7705Z" fill="#000056"/>
<path d="M13.6753 7.77723C13.3817 7.95479 13.0594 8.0764 12.7082 8.14214C12.3571 8.20863 12.0113 8.21472 11.6723 8.16028L11.7782 7.21354C12.1082 7.25963 12.3897 7.26497 12.6227 7.22943C12.8558 7.19389 13.0783 7.11309 13.2886 6.98614C13.4264 6.90301 13.5361 6.81838 13.6155 6.73225C13.6958 6.64611 13.745 6.56073 13.7646 6.47611C13.7843 6.39148 13.7722 6.3129 13.7283 6.24036C13.6678 6.14063 13.583 6.08547 13.4733 6.0764C13.3636 6.06734 13.2085 6.10209 13.0064 6.18143L12.1241 6.52371C11.7994 6.64913 11.5051 6.67407 11.2417 6.597C10.9784 6.52069 10.7665 6.34992 10.6053 6.08396C10.4631 5.84973 10.401 5.61172 10.4177 5.37069C10.4343 5.12966 10.5274 4.89694 10.6953 4.67328C10.8641 4.44887 11.1017 4.24411 11.4089 4.05824C11.6784 3.89579 11.9773 3.77792 12.3049 3.70387C12.6333 3.63058 12.9466 3.61471 13.2448 3.65551L13.1713 4.59697C12.625 4.53577 12.1672 4.61737 11.7979 4.84027C11.6768 4.91356 11.5807 4.98912 11.5081 5.06845C11.4354 5.14779 11.39 5.2241 11.3719 5.29891C11.3537 5.37371 11.3643 5.44398 11.4037 5.50896C11.4582 5.59888 11.5331 5.64723 11.6299 5.65479C11.7268 5.66234 11.8592 5.63439 12.0279 5.57016L12.8543 5.24073C13.2365 5.08508 13.5717 5.04049 13.8593 5.10699C14.1468 5.17348 14.3753 5.34651 14.5448 5.62532C14.6931 5.87013 14.7574 6.12023 14.737 6.37486C14.7166 6.62949 14.6167 6.87733 14.4373 7.11761C14.2572 7.35939 14.003 7.57927 13.6753 7.77723Z" fill="#000056"/>
<path d="M16.0506 6.37486L14.5515 2.41711L16.6408 1.62828C16.9012 1.53006 17.1539 1.49832 17.3976 1.53308C17.6412 1.56783 17.8584 1.65926 18.0484 1.80735C18.2383 1.95545 18.3805 2.15417 18.4744 2.40275C18.5645 2.64001 18.5871 2.87651 18.5417 3.11074C18.4971 3.34497 18.3934 3.55578 18.2307 3.74165C18.068 3.92828 17.8584 4.06958 17.6019 4.16629L16.4865 4.58715L17.0238 6.00614L16.0506 6.37486ZM16.183 3.78547L17.1857 3.40693C17.3294 3.35252 17.4286 3.2679 17.4838 3.15229C17.5391 3.03669 17.5421 2.91277 17.4921 2.78055C17.4407 2.64454 17.3552 2.55085 17.2364 2.49872C17.1176 2.44658 16.9859 2.44809 16.8429 2.50174L15.8402 2.88028L16.183 3.78547Z" fill="#000056"/>
<path d="M20.4707 4.88636L19.543 0.757851L20.5592 0.530418L21.487 4.65893L20.4707 4.88636Z" fill="#000056"/>
<path d="M22.6258 4.39979L22.2822 0.18212L24.4427 0.00682485C24.7325 -0.0165983 24.9943 0.0196698 25.2289 0.115629C25.4635 0.211588 25.6527 0.356661 25.7957 0.548579C25.9387 0.741252 26.0212 0.967926 26.0424 1.22936C26.0643 1.49457 26.0106 1.73711 25.8827 1.95775C25.7548 2.17837 25.577 2.35216 25.3485 2.47985L26.4094 4.09227L25.2508 4.18596L24.3292 2.71408L23.5384 2.77831L23.6632 4.31441L22.6258 4.39979ZM23.4703 1.93583L24.4964 1.85272C24.6576 1.83987 24.7832 1.78471 24.8748 1.68875C24.9663 1.5928 25.0065 1.47417 24.9943 1.33363C24.983 1.19309 24.9239 1.08278 24.8188 1.00193C24.7128 0.921835 24.5796 0.887837 24.4185 0.900683L23.3923 0.983799L23.4703 1.93583Z" fill="#000056"/>
<path d="M26.896 4.07335L29.1026 0.0657349L30.2877 0.200985L31.5097 4.59848L30.3913 4.47079L30.1227 3.41222L28.4806 3.22559L27.9736 4.19576L26.896 4.07335ZM28.8862 2.43827L29.9085 2.55463L29.5566 1.15151L28.8862 2.43827Z" fill="#000056"/>
<path d="M33.9874 5.4334C33.6794 5.33744 33.4092 5.1954 33.1784 5.00801C32.9476 4.81987 32.763 4.6015 32.6253 4.35141C32.4876 4.10206 32.4035 3.83383 32.3718 3.54747C32.3407 3.2611 32.3703 2.97171 32.4618 2.6793C32.5541 2.38311 32.6949 2.12621 32.8833 1.90785C33.0717 1.69024 33.2942 1.51796 33.5515 1.39103C33.8088 1.26409 34.0857 1.18929 34.3831 1.16511C34.6797 1.14168 34.9809 1.1772 35.2851 1.27164C35.5083 1.34116 35.7179 1.44241 35.9132 1.57463C36.1085 1.70686 36.2794 1.86025 36.4263 2.03479C36.5723 2.20933 36.682 2.39596 36.7554 2.59619L35.8799 3.04576C35.7936 2.82059 35.6771 2.63623 35.5296 2.49342C35.382 2.35062 35.2057 2.2471 35.0014 2.18363C34.8394 2.13301 34.679 2.11639 34.5201 2.13226C34.3604 2.14812 34.2129 2.19195 34.0767 2.26297C33.9405 2.33475 33.8209 2.43222 33.7187 2.55689C33.6166 2.68157 33.5387 2.82815 33.4864 2.9974C33.435 3.16287 33.4168 3.32533 33.4327 3.484C33.4485 3.64342 33.4932 3.79227 33.5658 3.93055C33.6385 4.06957 33.7384 4.18971 33.8648 4.29247C33.9911 4.39523 34.1395 4.47306 34.3089 4.52519C34.5057 4.5864 34.701 4.60075 34.8947 4.56826C35.0884 4.53577 35.2791 4.45794 35.4652 4.33403L35.9185 5.17802C35.746 5.2974 35.5507 5.38731 35.3328 5.44852C35.1149 5.50972 34.8901 5.53843 34.6586 5.53616C34.427 5.5354 34.203 5.50065 33.9874 5.4334Z" fill="#000056"/>
<path d="M37.5786 6.85542L38.3285 5.46665L38.044 2.29924L39.0988 2.86744L39.2502 4.9196L41.055 3.91996L42.0516 4.45644L39.2457 5.9608L38.4958 7.34954L37.5786 6.85542Z" fill="#000056"/>
<path d="M41.9722 9.64278L44.8961 6.57963L46.141 7.76361C46.3687 7.98047 46.5428 8.22151 46.6638 8.48671C46.7841 8.75192 46.8515 9.02472 46.8659 9.30499C46.8795 9.58533 46.8394 9.85889 46.744 10.1248C46.6495 10.3908 46.4989 10.6318 46.2923 10.8472C46.0887 11.0602 45.8579 11.2189 45.5991 11.3232C45.3403 11.4275 45.071 11.4788 44.7917 11.4773C44.5117 11.4758 44.2362 11.4207 43.9654 11.3134C43.6945 11.2061 43.4447 11.0436 43.217 10.8268L41.9722 9.64278ZM43.3607 9.69489L43.8337 10.1453C43.9532 10.2593 44.0857 10.344 44.2317 10.3983C44.377 10.4535 44.5269 10.4792 44.6812 10.4754C44.8356 10.4716 44.9839 10.4392 45.1261 10.3772C45.2684 10.3152 45.3971 10.2245 45.5113 10.1052C45.6286 9.98276 45.7157 9.84752 45.7732 9.69941C45.8307 9.55137 45.8579 9.40024 45.8541 9.2461C45.8503 9.09196 45.8186 8.9431 45.758 8.79951C45.6975 8.65598 45.6075 8.52677 45.4879 8.41269L45.0149 7.96233L43.3607 9.69489Z" fill="#000056"/>
<path d="M45.0801 12.6092L49.5395 11.5665L50.2318 12.5359L47.7755 16.3848L47.1217 15.4691L47.7301 14.5608L46.7706 13.2166L45.709 13.4895L45.0801 12.6092ZM47.6287 12.993L48.2258 13.8302L49.0347 12.6311L47.6287 12.993Z" fill="#000056"/>
<path d="M48.7964 18.7649C48.6663 18.4741 48.5966 18.1808 48.586 17.8854C48.5755 17.59 48.6194 17.3081 48.7184 17.0392C48.8176 16.7702 48.9636 16.5299 49.1581 16.3168C49.3526 16.1045 49.5902 15.936 49.8702 15.8113C50.1502 15.6867 50.4347 15.6232 50.723 15.6202C51.0113 15.6172 51.2883 15.6693 51.5546 15.7759C51.821 15.8824 52.0609 16.038 52.2735 16.2428C52.4869 16.4475 52.658 16.6962 52.7881 16.9863C52.9182 17.2772 52.9879 17.5703 52.9985 17.8658C53.009 18.1612 52.9651 18.443 52.8661 18.712C52.7677 18.9811 52.6209 19.2221 52.4264 19.4344C52.2319 19.6467 51.9943 19.8152 51.7143 19.9398C51.4343 20.0645 51.1498 20.1288 50.8615 20.131C50.5732 20.134 50.2962 20.0819 50.0299 19.9754C49.7635 19.8688 49.5236 19.7132 49.311 19.5085C49.0976 19.3036 48.9258 19.0558 48.7964 18.7649ZM49.6696 18.3758C49.7385 18.5307 49.8316 18.6614 49.9474 18.768C50.0639 18.8753 50.1933 18.9553 50.3363 19.0082C50.4793 19.0611 50.6322 19.0845 50.7949 19.0785C50.9576 19.0725 51.1188 19.0339 51.277 18.9629C51.4389 18.8903 51.5758 18.7966 51.6878 18.6803C51.7998 18.5647 51.8831 18.4355 51.939 18.2934C51.9951 18.1514 52.0216 18.0018 52.02 17.8439C52.0178 17.686 51.9822 17.5296 51.9134 17.3754C51.8445 17.2205 51.7514 17.0898 51.6356 16.9833C51.5191 16.876 51.3897 16.7959 51.2467 16.743C51.1036 16.6901 50.9516 16.6659 50.7904 16.6712C50.6292 16.6765 50.4695 16.7151 50.3114 16.7853C50.1494 16.8578 50.0117 16.9523 49.8982 17.0687C49.7847 17.1858 49.6999 17.315 49.644 17.4562C49.5879 17.5983 49.5607 17.7479 49.5629 17.9059C49.5645 18.0653 49.6008 18.2217 49.6696 18.3758Z" fill="#000056"/>
</g>
<path d="M26.4999 52.1098C39.4336 52.1098 49.9185 41.625 49.9185 28.6912C49.9185 15.7575 39.4336 5.27261 26.4999 5.27261C13.5662 5.27261 3.0813 15.7575 3.0813 28.6912C3.0813 41.625 13.5662 52.1098 26.4999 52.1098Z" fill="#000056"/>
<path d="M13.505 17.1382L12.8733 17.2216L13.6512 17.3977C14.2861 17.5415 14.7846 18.0329 14.9373 18.6657L15.1672 19.6182L15.3854 18.6361C15.5421 17.9313 16.1242 17.4004 16.8405 17.3093L17.5296 17.2216L16.7923 17.1341C16.0331 17.044 15.4256 16.4615 15.3039 15.7067L15.1672 14.8592L14.9507 15.818C14.7928 16.5174 14.2158 17.0443 13.505 17.1382Z" fill="#FEFCFF"/>
<path d="M36.7636 17.2213L35.8811 17.3379L36.9679 17.5839C37.8549 17.7848 38.5512 18.4713 38.7646 19.3553L39.0858 20.6862L39.3907 19.3141C39.6096 18.3293 40.4227 17.5878 41.4234 17.4604L42.3863 17.3379L41.3561 17.2157C40.2955 17.0898 39.4469 16.276 39.2768 15.2215L39.0858 14.0375L38.7834 15.3771C38.5627 16.3541 37.7566 17.0902 36.7636 17.2213Z" fill="#FEFCFF"/>
<path d="M33.5847 31.0138L33.0737 31.0813L33.703 31.2238C34.2164 31.3401 34.6196 31.7375 34.7432 32.2493L34.9291 33.0198L35.1056 32.2254C35.2323 31.6553 35.7031 31.226 36.2825 31.1522L36.8399 31.0813L36.2435 31.0106C35.6294 30.9377 35.1381 30.4665 35.0397 29.8561L34.9291 29.1705L34.754 29.9461C34.6263 30.5118 34.1595 30.9379 33.5847 31.0138Z" fill="#FEFCFF"/>
<path d="M16.1233 33.5474L15.6123 33.6149L16.2415 33.7574C16.755 33.8736 17.1582 34.2711 17.2817 34.7829L17.4677 35.5533L17.6442 34.759C17.7709 34.1889 18.2417 33.7596 18.8211 33.6858L19.3785 33.6149L18.7821 33.5441C18.168 33.4713 17.6767 33.0001 17.5782 32.3896L17.4677 31.7041L17.2926 32.4797C17.1648 33.0454 16.6981 33.4715 16.1233 33.5474Z" fill="#FEFCFF"/>
<path d="M6.46822 31.0138L5.95728 31.0813L6.58649 31.2238C7.09999 31.3401 7.50318 31.7375 7.62671 32.2493L7.81269 33.0198L7.98915 32.2254C8.1159 31.6553 8.58666 31.226 9.16604 31.1522L9.72343 31.0813L9.12707 31.0106C8.51298 30.9377 8.02167 30.4665 7.92321 29.8561L7.81269 29.1705L7.63753 29.9461C7.50982 30.5118 7.04309 30.9379 6.46822 31.0138Z" fill="#FEFCFF"/>
<path d="M28.2198 7.93254L27.938 7.96972L28.285 8.04833C28.5682 8.11243 28.7905 8.33162 28.8586 8.61387L28.9611 9.03876L29.0585 8.60072C29.1284 8.28629 29.388 8.04957 29.7075 8.00889L30.0149 7.96972L29.686 7.93076C29.3474 7.89057 29.0765 7.6307 29.0222 7.29408L28.9611 6.91602L28.8646 7.34372C28.7941 7.6557 28.5368 7.8907 28.2198 7.93254Z" fill="#FEFCFF"/>
<path d="M8.09292 19.1384L7.87476 19.1672L8.14338 19.228C8.36264 19.2777 8.53479 19.4474 8.58752 19.6659L8.66688 19.9948L8.74227 19.6557C8.79637 19.4123 8.99734 19.229 9.24474 19.1975L9.4827 19.1672L9.22811 19.137C8.96591 19.1059 8.75617 18.9047 8.71413 18.6441L8.66688 18.3514L8.5921 18.6826C8.5376 18.9241 8.33833 19.106 8.09292 19.1384Z" fill="#FEFCFF"/>
<path d="M16.173 43.6526L15.9548 43.6814L16.2235 43.7423C16.4427 43.7919 16.6149 43.9616 16.6676 44.1801L16.747 44.509L16.8223 44.1699C16.8764 43.9265 17.0774 43.7432 17.3248 43.7117L17.5628 43.6814L17.3082 43.6512C17.046 43.6201 16.8362 43.4189 16.7942 43.1583L16.747 42.8656L16.6722 43.1968C16.6177 43.4383 16.4184 43.6202 16.173 43.6526Z" fill="#FEFCFF"/>
<path d="M37.058 41.5984L36.8398 41.6272L37.1085 41.688C37.3277 41.7376 37.4999 41.9073 37.5526 42.1258L37.632 42.4548L37.7074 42.1156C37.7615 41.8723 37.9624 41.689 38.2098 41.6575L38.4478 41.6272L38.1932 41.5969C37.931 41.5658 37.7213 41.3647 37.6792 41.104L37.632 40.8114L37.5572 41.1425C37.5027 41.384 37.3034 41.5659 37.058 41.5984Z" fill="#FEFCFF"/>
<path d="M42.6044 42.0092L42.3862 42.038L42.6549 42.0989C42.8741 42.1485 43.0463 42.3182 43.099 42.5367L43.1784 42.8656L43.2537 42.5265C43.3078 42.2831 43.5088 42.0998 43.7562 42.0683L43.9942 42.038L43.7396 42.0078C43.4774 41.9767 43.2676 41.7755 43.2256 41.5149L43.1784 41.2222L43.1036 41.5534C43.0491 41.7949 42.8498 41.9768 42.6044 42.0092Z" fill="#FEFCFF"/>
<path d="M41.8512 25.5066L41.6331 25.5355L41.9017 25.5963C42.1209 25.6459 42.2931 25.8156 42.3458 26.0341L42.4252 26.3631L42.5006 26.0239C42.5547 25.7805 42.7556 25.5972 43.003 25.5657L43.241 25.5355L42.9864 25.5052C42.7242 25.4741 42.5145 25.2729 42.4724 25.0123L42.4252 24.7196L42.3504 25.0508C42.2959 25.2923 42.0966 25.4742 41.8512 25.5066Z" fill="#FEFCFF"/>
<path d="M24.5954 13.181L24.3772 13.2099L24.6458 13.2707C24.8651 13.3203 25.0372 13.49 25.09 13.7085L25.1693 14.0375L25.2447 13.6983C25.2988 13.4549 25.4998 13.2716 25.7472 13.2401L25.9851 13.2099L25.7305 13.1796C25.4684 13.1485 25.2586 12.9473 25.2166 12.6867L25.1693 12.3941L25.0945 12.7252C25.04 12.9667 24.8408 13.1486 24.5954 13.181Z" fill="#FEFCFF"/>
<path d="M24.9251 25.2674L14.5168 53H38.4148L27.8011 25.2674H24.9251Z" fill="white"/>
<path fill-rule="evenodd" clip-rule="evenodd" d="M31.4795 20.5631C31.5286 20.6709 31.5736 20.78 31.6144 20.8903C30.0411 20.7554 28.27 20.6796 26.3972 20.6796C24.4112 20.6796 22.5397 20.7648 20.8969 20.9154C20.9401 20.7966 20.9882 20.679 21.0411 20.5631C21.325 19.94 21.7411 19.3738 22.2657 18.897C22.7903 18.4201 23.413 18.0418 24.0984 17.7837C24.7838 17.5256 25.5184 17.3928 26.2603 17.3928C27.0021 17.3928 27.7367 17.5256 28.4221 17.7837C29.1075 18.0418 29.7303 18.4201 30.2549 18.897C30.7794 19.3738 31.1956 19.94 31.4795 20.5631ZM38.2092 23.3501C38.2092 24.3402 34.1816 25.1667 28.8202 25.3611C28.2686 25.9672 27.3583 26.363 26.3287 26.363C25.2962 26.363 24.3836 25.9649 23.8325 25.3558C18.5421 25.1521 14.5852 24.3315 14.5852 23.3501C14.5852 22.2156 19.8736 21.2959 26.3972 21.2959C32.9208 21.2959 38.2092 22.2156 38.2092 23.3501Z" fill="white"/>
</g>
<defs>
<clipPath id="clip0_2_514">
<rect width="53" height="53" fill="white"/>
</clipPath>
</defs>
</svg>
